<svg id="meta" enable-background="new 0 0 512 512" viewBox="0 0 512 512" xmlns="http://www.w3.org/2000/svg" xmlns:xlink="http://www.w3.org/1999/xlink"><linearGradient id="SVGID_1_" gradientTransform="matrix(1 0 0 -1 0 514)" gradientUnits="userSpaceOnUse" x1="5.3" x2="506.8" y1="258.1" y2="258.1"><stop offset="0" stop-color="#0064e0"/><stop offset=".06176297" stop-color="#006ae5"/><stop offset=".2183" stop-color="#007af4"/><stop offset=".8106" stop-color="#007df6"/><stop offset="1" stop-color="#0080f9"/></linearGradient><linearGradient id="SVGID_00000108294422424748979490000015468411590085554596_" gradientTransform="matrix(1 0 0 -1 0 514)" gradientUnits="userSpaceOnUse" x1="49.786" x2="230.719" y1="320.675" y2="133.579"><stop offset="0" stop-color="#0064e0"/><stop offset=".0134753" stop-color="#0065e1"/><stop offset=".2894" stop-color="#0075f0"/><stop offset=".5971" stop-color="#007ff9"/><stop offset="1" stop-color="#0082fc"/></linearGradient><linearGradient id="SVGID_00000011014187292083061840000001297153340796386228_" gradientTransform="matrix(1 0 0 -1 0 514)" gradientUnits="userSpaceOnUse" x1="110.25" x2="416.1" y1="451.784" y2="121.254"><stop offset="0" stop-color="#0082fb"/><stop offset=".02167212" stop-color="#017cf5"/><stop offset=".09047851" stop-color="#0471ea"/><stop offset=".1872" stop-color="#066ae3"/><stop offset=".4561" stop-color="#0668e1"/><stop offset=".7462" stop-color="#056ae3"/><stop offset=".8847" stop-color="#0472eb"/><stop offset=".9742" stop-color="#017cf5"/><stop offset="1" stop-color="#0082fb"/></linearGradient><linearGradient id="SVGID_00000115496449546236234580000017061870114335014073_" gradientTransform="matrix(1 0 0 -1 0 514)" gradientUnits="userSpaceOnUse" x1="49" x2="262.7" y1="365.75" y2="365.75"><stop offset="0" stop-color="#0064e0"/><stop offset=".4218" stop-color="#0069e4"/><stop offset=".4332" stop-color="#0069e4"/><stop offset="1" stop-color="#0668e1"/></linearGradient><linearGradient id="SVGID_00000150100707639943330890000011886544216348691624_" gradientTransform="matrix(1 0 0 -1 0 514)" gradientUnits="userSpaceOnUse" x1="324.016" x2="506.8" y1="149.85" y2="149.85"><stop offset="0" stop-color="#066be3"/><stop offset=".3087" stop-color="#0470e9"/><stop offset=".559" stop-color="#0279f2"/><stop offset="1" stop-color="#0080f9"/></linearGradient><path d="m149.4 89.4c-81.6 0-144.1 106.2-144.1 218.5 0 70.3 34 114.7 91 114.7 41 0 70.5-19.3 123-111 0 0 21.9-38.6 36.9-65.2l31.2-52.8c26.5-40.9 48.4-61.3 74.4-61.3 54 0 97.2 79.5 97.2 177.2 0 37.2-12.2 58.8-37.5 58.8-24.2 0-35.8-16-81.8-90l-42.3 36.9c47.9 80.2 74.6 107.4 123 107.4 55.5 0 86.4-45.1 86.4-116.9 0-117.7-63.9-216.5-141.6-216.5-41.1 0-73.3 31-102.4 70.3l-32.3 47.4c-31.9 49-51.3 79.7-51.3 79.7-42.5 66.7-57.2 81.6-80.9 81.6-24.4 0-38.8-21.4-38.8-59.5 0-81.6 40.7-165 89.2-165z" fill="url(#SVGID_1_)"/><path d="m265.5 196.4-35 10.8c-31.9 49-51.3 79.7-51.3 79.7-42.5 66.7-57.2 81.6-80.9 81.6-24.4 0-38.8-21.4-38.8-59.5 0-81.6 40.7-165 89.2-165l.7-54.5c-81.6-.1-144.1 106.1-144.1 218.4 0 70.3 34 114.7 91 114.7 41 0 70.5-19.3 123-111 0 0 21.9-38.6 36.9-65.2z" fill="url(#SVGID_00000108294422424748979490000015468411590085554596_)"/><path d="m297.4 315.3c47.9 80.2 74.6 107.3 123 107.3l1.1-54.3c-24.2 0-35.8-15.9-81.8-89.9-38.6-62.8-58.3-94.2-76.9-118.7-40-50.9-73.4-70.3-113.4-70.3l-.7 54.5c26.3 0 48.2 15.2 81.8 63.3 14.1 19.8 43 66.9 66.9 108.1z" fill="url(#SVGID_00000011014187292083061840000001297153340796386228_)"/><path d="m262.7 159.7c-40-50.9-73.4-70.3-113.5-70.3-39.5 0-74.5 24.9-100.2 63.3l38.6 39.5c16.1-29.1 37.8-48.2 61.1-48.2 26.3 0 48 15 81.6 63.1z" fill="url(#SVGID_00000115496449546236234580000017061870114335014073_)"/><path d="m324 357.3c32.9 47.9 57.7 65.3 96.4 65.3 55.5 0 86.4-45.1 86.4-116.9l-47.8 3.8c0 37.2-12.2 58.8-37.5 58.8-19.5 0-30.9-10.4-58.8-53.4z" fill="url(#SVGID_00000150100707639943330890000011886544216348691624_)"/></svg>